<svg width="25" height="25" viewBox="0 0 25 25" fill="none" xmlns="http://www.w3.org/2000/svg">
<path d="M6.77804 20.7127C7.82329 20.7127 8.67176 21.5611 8.67176 22.6064C8.67176 23.6518 7.82315 24.4989 6.77804 24.4989C5.73279 24.4989 4.88557 23.6516 4.88557 22.6064C4.88557 21.5613 5.73265 20.7127 6.77804 20.7127ZM20.8433 20.7127C21.8885 20.7127 22.737 21.5611 22.737 22.6064C22.737 23.6518 21.8884 24.4989 20.8433 24.4989C19.7982 24.4989 18.9496 23.6518 18.9496 22.6064C18.9496 21.5611 19.798 20.7127 20.8433 20.7127ZM0.97071 0.000624933L1.09752 0.0138869L3.69747 0.463879C4.07115 0.528555 4.36413 0.810255 4.44968 1.17065L4.47179 1.30922L4.7652 4.81132H22.386C23.9148 4.81132 25.1022 6.11217 24.993 7.61098L24.9726 7.79929L23.7863 15.9972C23.568 17.4994 22.3281 18.6303 20.8327 18.7258L20.6273 18.7323H6.98753C5.39656 18.7323 4.06078 17.5648 3.83078 16.0117L3.80712 15.8071L2.66398 2.18762L0.777757 1.86139C0.310099 1.78045 -0.016245 1.36603 0.000624933 0.904564L0.0138869 0.777757C0.0948279 0.310099 0.50924 -0.016245 0.97071 0.000624933ZM22.386 6.68629H4.92269L5.67556 15.6507C5.72844 16.2845 6.22354 16.7817 6.84262 16.8495L6.98753 16.8574H20.6273C21.2312 16.8574 21.7505 16.4479 21.9009 15.8747L21.9307 15.7281L23.1169 7.53084C23.176 7.12215 22.8909 6.75307 22.4962 6.69439L22.386 6.68629ZM18.623 9.43124C19.1407 9.43124 19.5604 9.85097 19.5604 10.3687C19.5604 10.8433 19.2078 11.2356 18.7502 11.2977L18.623 11.3062H15.1568C14.639 11.3062 14.2193 10.8865 14.2193 10.3687C14.2193 9.89412 14.572 9.50188 15.0296 9.4398L15.1568 9.43124H18.623Z" fill="#200E32"/>
</svg>
