<svg width="60" height="48" viewBox="0 0 60 48" fill="none" xmlns="http://www.w3.org/2000/svg">
<path d="M3.78289 0H18.1324C19.0722 0 19.9402 0.501994 20.4091 1.31636L22.7709 4.54267C23.2398 5.35703 24.108 5.85902 25.0477 5.85902H59.9999V42.6943C59.9999 44.6289 58.4315 46.1972 56.4969 46.1972H3.50294C1.56838 46.1972 0 44.6289 0 42.6943V9.94518C0 7.23752 0.418328 4.546 1.24025 1.96608C1.54134 0.808212 2.58659 0 3.78289 0Z" fill="#F6C358"/>
<path d="M51.58 5.25647H5.46002V24.7389H51.58V5.25647Z" fill="#EBF0F3"/>
<path d="M57.3728 1.75153H42.9125C41.8842 1.75153 40.9503 2.35154 40.523 3.28685L38.0485 8.7023C37.6211 9.63761 36.6873 10.2376 35.659 10.2376H0V43.57C0 45.5045 1.56838 47.0729 3.50293 47.0729H56.4971C58.4316 47.0729 60 45.5045 60 43.57V4.37873C60 2.92784 58.8237 1.75153 57.3728 1.75153Z" fill="#FCD462"/>
</svg>
