<svg width="25" height="28" viewBox="0 0 25 28" fill="none" xmlns="http://www.w3.org/2000/svg">
<path d="M19.0128 0C22.2254 0 24.8463 2.52912 24.9935 5.70532L25 5.98721V21.0601C25 24.2793 22.4645 26.9068 19.2817 27.0543L18.9993 27.0608H12.3897C9.18129 27.0608 6.56201 24.535 6.41071 21.3636L6.40381 21.0736V19.799C6.40381 19.2386 6.85814 18.7843 7.41859 18.7843C7.93233 18.7843 8.35691 19.166 8.4241 19.6613L8.43337 19.799V21.0736C8.43337 23.1808 10.0808 24.9041 12.1572 25.0245L12.3897 25.0313H18.9993C21.1139 25.0313 22.8429 23.3778 22.9637 21.2934L22.9704 21.0601V5.98721C22.9704 3.87906 21.3233 2.15662 19.2454 2.03628L19.0128 2.02956H12.4045C10.2887 2.02956 8.56083 3.68159 8.44011 5.76606L8.43337 5.99938V7.26177C8.43337 7.82222 7.97903 8.27655 7.41859 8.27655C6.90484 8.27655 6.48027 7.89478 6.41307 7.39947L6.40381 7.26177V5.99938C6.40381 2.77994 8.93828 0.153956 12.122 0.00652815L12.4045 0H19.0128ZM13.9475 8.76762L14.0615 8.86564L18.0232 12.8111C18.0561 12.8443 18.0857 12.8782 18.1131 12.9139L18.0232 12.8111C18.0732 12.8609 18.1169 12.9146 18.1544 12.9712C18.1675 12.9918 18.1805 13.0132 18.1928 13.0351C18.2011 13.049 18.2084 13.063 18.2155 13.077C18.2291 13.1052 18.242 13.1343 18.2535 13.1641C18.2598 13.1795 18.2653 13.1948 18.2704 13.2102C18.2794 13.2384 18.2877 13.2677 18.2947 13.2975C18.2988 13.3136 18.3021 13.3294 18.305 13.3453C18.3098 13.3727 18.3138 13.4012 18.3167 13.4301C18.319 13.4504 18.3204 13.4703 18.3212 13.4902C18.3213 13.5034 18.3215 13.5167 18.3215 13.5301L18.3212 13.5687C18.3204 13.5895 18.319 13.6103 18.3169 13.6311L18.3215 13.5301C18.3215 13.5935 18.3157 13.6555 18.3046 13.7157C18.3021 13.7309 18.2988 13.7468 18.2951 13.7626C18.2875 13.7937 18.2788 13.8241 18.2688 13.8539C18.2644 13.8679 18.2594 13.8819 18.254 13.8958C18.2425 13.9246 18.2301 13.9527 18.2166 13.9801C18.2097 13.9949 18.2017 14.0102 18.1933 14.0252C18.1778 14.052 18.1617 14.0778 18.1446 14.1029C18.1374 14.1141 18.1298 14.1247 18.122 14.1352C18.0886 14.1788 18.0576 14.2144 18.0243 14.2477L18.0232 14.2492L14.0615 18.1946C13.6644 18.5901 13.0219 18.5888 12.6264 18.1917C12.2669 17.8307 12.2353 17.2668 12.5309 16.8702L12.6294 16.7566L14.8483 14.5438L1.01478 14.5449C0.454333 14.5449 0 14.0906 0 13.5301C0 13.0164 0.381766 12.5918 0.877081 12.5246L1.01478 12.5154L14.8483 12.5143L12.6294 10.3037C12.2684 9.94417 12.2344 9.38048 12.5284 8.9826L12.6264 8.86859C12.9859 8.50758 13.5496 8.47367 13.9475 8.76762Z" fill="#EC4646"/>
</svg>
